HIERARCHY
ROOT newVegas:Hips
{
	OFFSET 0.000000 96.479958 0.000000
	CHANNELS 6 Xposition Yposition Zposition Xrotation Yrotation Zrotation
	JOINT newVegas:Pelvis
	{
		OFFSET 0.000000 0.000000 0.000000
		CHANNELS 3 Xrotation Yrotation Zrotation
		JOINT newVegas:LeftUpLeg
		{
			OFFSET 18.735201 -5.666702 -4.541200
			CHANNELS 3 Xrotation Yrotation Zrotation
			JOINT newVegas:LeftLeg
			{
				OFFSET -0.021200 -31.938179 0.493100
				CHANNELS 3 Xrotation Yrotation Zrotation
				JOINT newVegas:LeftFoot
				{
					OFFSET 0.021200 -31.938179 -4.336299
					CHANNELS 3 Xrotation Yrotation Zrotation
					JOINT newVegas:LeftToeBase
					{
						OFFSET 0.943001 -26.722000 15.023500
						CHANNELS 3 Xrotation Yrotation Zrotation
						End Site
						{
							OFFSET 0.000000 30.670183 0.000000
						}
					}
				}
				JOINT newVegas:Left_PantLeg
				{
					OFFSET 0.663870 -9.044666 -1.108900
					CHANNELS 3 Xrotation Yrotation Zrotation
					End Site
					{
						OFFSET 1.415995 20.635357 0.000000
					}
				}
			}
		}
		JOINT newVegas:RightUpLeg
		{
			OFFSET -18.735201 -5.666702 -4.541200
			CHANNELS 3 Xrotation Yrotation Zrotation
			JOINT newVegas:RightLeg
			{
				OFFSET 0.018946 -31.938133 0.493100
				CHANNELS 3 Xrotation Yrotation Zrotation
				JOINT newVegas:RightFoot
				{
					OFFSET -0.018946 -31.938126 -4.336299
					CHANNELS 3 Xrotation Yrotation Zrotation
					JOINT newVegas:RightToeBase
					{
						OFFSET -0.943001 -26.722004 15.023500
						CHANNELS 3 Xrotation Yrotation Zrotation
						End Site
						{
							OFFSET 0.000000 30.670187 0.000000
						}
					}
				}
				JOINT newVegas:Right_PantLeg
				{
					OFFSET -0.661674 -9.044716 -1.108900
					CHANNELS 3 Xrotation Yrotation Zrotation
					End Site
					{
						OFFSET -1.415958 20.635269 0.000000
					}
				}
			}
		}
	}
	JOINT newVegas:Spine
	{
		OFFSET 0.000000 10.199997 -0.299500
		CHANNELS 3 Xrotation Yrotation Zrotation
		JOINT newVegas:Spine1
		{
			OFFSET 0.000000 11.900002 -1.516600
			CHANNELS 3 Xrotation Yrotation Zrotation
			JOINT newVegas:Spine2
			{
				OFFSET 0.000000 13.600006 -2.842500
				CHANNELS 3 Xrotation Yrotation Zrotation
				JOINT newVegas:Neck
				{
					OFFSET 0.000000 9.624100 -2.890100
					CHANNELS 3 Xrotation Yrotation Zrotation
					JOINT newVegas:Head
					{
						OFFSET 0.000000 14.068802 -1.351900
						CHANNELS 3 Xrotation Yrotation Zrotation
						JOINT newVegas:Hair_Back
						{
							OFFSET 0.000000 3.231903 -17.524799
							CHANNELS 3 Xrotation Yrotation Zrotation
							End Site
							{
								OFFSET 0.000000 19.849884 0.000000
							}
						}
						JOINT newVegas:Hair_Front
						{
							OFFSET 0.000000 31.260406 4.573800
							CHANNELS 3 Xrotation Yrotation Zrotation
							JOINT newVegas:Hair_Front1
							{
								OFFSET 0.000000 2.284103 11.993300
								CHANNELS 3 Xrotation Yrotation Zrotation
								JOINT newVegas:Hair_Front2
								{
									OFFSET 0.000000 2.284103 11.993300
									CHANNELS 3 Xrotation Yrotation Zrotation
									End Site
									{
										OFFSET 0.000000 12.208862 0.000000
									}
								}
							}
						}
						JOINT newVegas:Jowel
						{
							OFFSET 0.000000 -7.458206 6.864100
							CHANNELS 3 Xrotation Yrotation Zrotation
							End Site
							{
								OFFSET 0.000000 19.849884 0.000000
							}
						}
					}
				}
				JOINT newVegas:LeftShoulder
				{
					OFFSET 15.263000 10.923401 -0.547700
					CHANNELS 3 Xrotation Yrotation Zrotation
					JOINT newVegas:LeftArm
					{
						OFFSET 25.438599 -2.830597 -13.032500
						CHANNELS 3 Xrotation Yrotation Zrotation
						JOINT newVegas:LeftForeArm
						{
							OFFSET 29.960503 0.000000 0.000000
							CHANNELS 3 Xrotation Yrotation Zrotation
							JOINT newVegas:LeftHand
							{
								OFFSET 27.849251 0.000000 0.000000
								CHANNELS 3 Xrotation Yrotation Zrotation
								JOINT newVegas:LeftHandThumb1
								{
									OFFSET 4.487587 -3.305161 6.305391
									CHANNELS 3 Xrotation Yrotation Zrotation
									JOINT newVegas:LeftHandThumb2
									{
										OFFSET 5.480453 -3.164139 3.164143
										CHANNELS 3 Xrotation Yrotation Zrotation
										JOINT newVegas:LeftHandThumb3
										{
											OFFSET 5.159721 -2.978973 2.978967
											CHANNELS 3 Xrotation Yrotation Zrotation
											End Site
											{
												OFFSET 2.494507 5.926697 1.738678
											}
										}
									}
								}
								JOINT newVegas:LeftHandIndex1
								{
									OFFSET 18.578728 -0.527832 5.208049
									CHANNELS 3 Xrotation Yrotation Zrotation
									JOINT newVegas:LeftHandIndex2
									{
										OFFSET 3.192009 0.000000 0.000000
										CHANNELS 3 Xrotation Yrotation Zrotation
										JOINT newVegas:LeftHandIndex3
										{
											OFFSET 3.835129 0.000000 0.000000
											CHANNELS 3 Xrotation Yrotation Zrotation
											End Site
											{
												OFFSET -0.034599 3.816971 0.371180
											}
										}
									}
								}
								JOINT newVegas:LeftHandMiddle1
								{
									OFFSET 18.476105 0.000000 0.000000
									CHANNELS 3 Xrotation Yrotation Zrotation
									JOINT newVegas:LeftHandMiddle2
									{
										OFFSET 3.324875 0.000000 0.000000
										CHANNELS 3 Xrotation Yrotation Zrotation
										JOINT newVegas:LeftHandMiddle3
										{
											OFFSET 4.596550 0.000000 0.000000
											CHANNELS 3 Xrotation Yrotation Zrotation
											End Site
											{
												OFFSET 0.057701 4.578827 0.399218
											}
										}
									}
								}
								JOINT newVegas:LeftHandRing1
								{
									OFFSET 17.732719 0.121887 -4.201567
									CHANNELS 3 Xrotation Yrotation Zrotation
									JOINT newVegas:LeftHandRing2
									{
										OFFSET 2.733170 0.000000 0.000000
										CHANNELS 3 Xrotation Yrotation Zrotation
										JOINT newVegas:LeftHandRing3
										{
											OFFSET 3.178268 0.000000 0.000000
											CHANNELS 3 Xrotation Yrotation Zrotation
											End Site
											{
												OFFSET 0.119102 3.170624 0.185394
											}
										}
									}
								}
								JOINT newVegas:LeftHandPinky1
								{
									OFFSET 15.989624 -0.606689 -7.535461
									CHANNELS 3 Xrotation Yrotation Zrotation
									JOINT newVegas:LeftHandPinky2
									{
										OFFSET 2.538986 0.000000 0.000000
										CHANNELS 3 Xrotation Yrotation Zrotation
										JOINT newVegas:LeftHandPinky3
										{
											OFFSET 2.593102 0.000000 0.000000
											CHANNELS 3 Xrotation Yrotation Zrotation
											End Site
											{
												OFFSET -0.150902 2.584198 0.152708
											}
										}
									}
								}
							}
							JOINT newVegas:Left_Sleeve
							{
								OFFSET 0.267448 -0.649796 0.577675
								CHANNELS 3 Xrotation Yrotation Zrotation
								End Site
								{
									OFFSET 0.000000 15.991241 0.000000
								}
							}
							JOINT newVegas:Left_CapeC
							{
								OFFSET 15.715958 -8.608795 -6.935905
								CHANNELS 3 Xrotation Yrotation Zrotation
								JOINT newVegas:Left_CapeC1
								{
									OFFSET 0.000000 -8.688499 0.000000
									CHANNELS 3 Xrotation Yrotation Zrotation
									End Site
									{
										OFFSET 0.000000 8.688499 0.000000
									}
								}
							}
						}
						JOINT newVegas:Left_CapeB
						{
							OFFSET 26.118385 -8.608795 -7.079235
							CHANNELS 3 Xrotation Yrotation Zrotation
							JOINT newVegas:Left_CapeB1
							{
								OFFSET 0.000000 -8.688499 0.000000
								CHANNELS 3 Xrotation Yrotation Zrotation
								End Site
								{
									OFFSET 0.000000 8.688499 0.000000
								}
							}
						}
						JOINT newVegas:Left_CapeA
						{
							OFFSET 5.115639 -8.608795 -10.395809
							CHANNELS 3 Xrotation Yrotation Zrotation
							JOINT newVegas:Left_CapeA1
							{
								OFFSET 0.000000 -8.688499 0.000000
								CHANNELS 3 Xrotation Yrotation Zrotation
								End Site
								{
									OFFSET 0.000000 8.688499 0.000000
								}
							}
						}
					}
				}
				JOINT newVegas:RightShoulder
				{
					OFFSET -15.263000 10.923401 -0.547700
					CHANNELS 3 Xrotation Yrotation Zrotation
					JOINT newVegas:RightArm
					{
						OFFSET -25.438599 -2.830597 -13.032500
						CHANNELS 3 Xrotation Yrotation Zrotation
						JOINT newVegas:RightForeArm
						{
							OFFSET -29.960503 0.000000 0.000000
							CHANNELS 3 Xrotation Yrotation Zrotation
							JOINT newVegas:RightHand
							{
								OFFSET -27.849251 0.000000 0.000000
								CHANNELS 3 Xrotation Yrotation Zrotation
								JOINT newVegas:RightHandThumb1
								{
									OFFSET -4.487587 -3.305161 6.305391
									CHANNELS 3 Xrotation Yrotation Zrotation
									JOINT newVegas:RightHandThumb2
									{
										OFFSET -5.480453 -3.164139 3.164143
										CHANNELS 3 Xrotation Yrotation Zrotation
										JOINT newVegas:RightHandThumb3
										{
											OFFSET -5.159721 -2.978973 2.978967
											CHANNELS 3 Xrotation Yrotation Zrotation
											End Site
											{
												OFFSET -2.494507 5.926697 1.738678
											}
										}
									}
								}
								JOINT newVegas:RightHandIndex1
								{
									OFFSET -18.578728 -0.527832 5.208049
									CHANNELS 3 Xrotation Yrotation Zrotation
									JOINT newVegas:RightHandIndex2
									{
										OFFSET -3.192009 0.000000 0.000000
										CHANNELS 3 Xrotation Yrotation Zrotation
										JOINT newVegas:RightHandIndex3
										{
											OFFSET -3.835129 0.000000 0.000000
											CHANNELS 3 Xrotation Yrotation Zrotation
											End Site
											{
												OFFSET 0.034599 3.816971 0.371180
											}
										}
									}
								}
								JOINT newVegas:RightHandMiddle1
								{
									OFFSET -18.476105 0.000000 0.000000
									CHANNELS 3 Xrotation Yrotation Zrotation
									JOINT newVegas:RightHandMiddle2
									{
										OFFSET -3.324875 0.000000 0.000000
										CHANNELS 3 Xrotation Yrotation Zrotation
										JOINT newVegas:RightHandMiddle3
										{
											OFFSET -4.596550 0.000000 0.000000
											CHANNELS 3 Xrotation Yrotation Zrotation
											End Site
											{
												OFFSET -0.057701 4.578827 0.399218
											}
										}
									}
								}
								JOINT newVegas:RightHandRing1
								{
									OFFSET -17.732719 0.121887 -4.201567
									CHANNELS 3 Xrotation Yrotation Zrotation
									JOINT newVegas:RightHandRing2
									{
										OFFSET -2.733170 0.000000 0.000000
										CHANNELS 3 Xrotation Yrotation Zrotation
										JOINT newVegas:RightHandRing3
										{
											OFFSET -3.178268 0.000000 0.000000
											CHANNELS 3 Xrotation Yrotation Zrotation
											End Site
											{
												OFFSET -0.119102 3.170624 0.185394
											}
										}
									}
								}
								JOINT newVegas:RightHandPinky1
								{
									OFFSET -15.989624 -0.606689 -7.535461
									CHANNELS 3 Xrotation Yrotation Zrotation
									JOINT newVegas:RightHandPinky2
									{
										OFFSET -2.538986 0.000000 0.000000
										CHANNELS 3 Xrotation Yrotation Zrotation
										JOINT newVegas:RightHandPinky3
										{
											OFFSET -2.593102 0.000000 0.000000
											CHANNELS 3 Xrotation Yrotation Zrotation
											End Site
											{
												OFFSET 0.150902 2.584198 0.152708
											}
										}
									}
								}
							}
							JOINT newVegas:Right_CapeC
							{
								OFFSET -15.715958 -8.608795 -6.935905
								CHANNELS 3 Xrotation Yrotation Zrotation
								JOINT newVegas:Right_CapeC1
								{
									OFFSET 0.000000 -8.688499 0.000000
									CHANNELS 3 Xrotation Yrotation Zrotation
									End Site
									{
										OFFSET 0.000000 8.688499 0.000000
									}
								}
							}
							JOINT newVegas:Right_Sleeve
							{
								OFFSET -0.267448 -0.649994 0.577675
								CHANNELS 3 Xrotation Yrotation Zrotation
								End Site
								{
									OFFSET 0.000000 15.991302 0.000000
								}
							}
						}
						JOINT newVegas:Right_CapeA
						{
							OFFSET -5.115540 -8.608795 -10.395824
							CHANNELS 3 Xrotation Yrotation Zrotation
							JOINT newVegas:Right_CapeA1
							{
								OFFSET 0.000000 -8.688499 0.000000
								CHANNELS 3 Xrotation Yrotation Zrotation
								End Site
								{
									OFFSET 0.000000 8.688499 0.000000
								}
							}
						}
						JOINT newVegas:Right_CapeB
						{
							OFFSET -26.118187 -8.608795 -7.079266
							CHANNELS 3 Xrotation Yrotation Zrotation
							JOINT newVegas:Right_CapeB1
							{
								OFFSET 0.000000 -8.688499 0.000000
								CHANNELS 3 Xrotation Yrotation Zrotation
								End Site
								{
									OFFSET 0.000000 8.688499 0.000000
								}
							}
						}
					}
				}
				JOINT newVegas:Left_Collar
				{
					OFFSET 18.625099 8.655502 8.828100
					CHANNELS 3 Xrotation Yrotation Zrotation
					JOINT newVegas:Left_Collar1
					{
						OFFSET 14.783401 10.540405 -1.259500
						CHANNELS 3 Xrotation Yrotation Zrotation
						End Site
						{
							OFFSET 0.000000 18.199875 0.000000
						}
					}
				}
				JOINT newVegas:Collar_Back
				{
					OFFSET 0.000000 15.630707 -20.132601
					CHANNELS 3 Xrotation Yrotation Zrotation
					End Site
					{
						OFFSET 0.000000 22.523010 0.000000
					}
				}
				JOINT newVegas:Left_Peck
				{
					OFFSET 17.239599 -5.132599 25.482599
					CHANNELS 3 Xrotation Yrotation Zrotation
					End Site
					{
						OFFSET 0.000000 22.523010 0.000000
					}
				}
				JOINT newVegas:Right_Peck
				{
					OFFSET -17.239599 -5.132202 25.482599
					CHANNELS 3 Xrotation Yrotation Zrotation
					End Site
					{
						OFFSET 0.000000 22.523010 0.000000
					}
				}
				JOINT newVegas:Right_Collar
				{
					OFFSET -18.625099 8.655792 8.828100
					CHANNELS 3 Xrotation Yrotation Zrotation
					JOINT newVegas:Right_Collar1
					{
						OFFSET -14.783401 10.539993 -1.259500
						CHANNELS 3 Xrotation Yrotation Zrotation
						End Site
						{
							OFFSET 0.000000 18.199631 0.000000
						}
					}
				}
			}
		}
		JOINT newVegas:Belly
		{
			OFFSET 0.000000 -6.540398 9.014299
			CHANNELS 3 Xrotation Yrotation Zrotation
			End Site
			{
				OFFSET 0.000000 11.566666 0.000000
			}
		}
	}
	JOINT newVegas:ElvisFacialAnim_Joint
	{
		OFFSET 1.000000 -95.330101 -8.825800
		CHANNELS 3 Xrotation Yrotation Zrotation
		End Site
		{
			OFFSET 0.000000 35.315800 0.000000
		}
	}
}
MOTION
Frames: 4
Frame Time: 0.033333
0.288468 93.570091 -119.204971 0.859441 0.285991 2.562119 -0.000000 -0.000000 -0.000000 -41.100527 2.034562 -1.179164 42.677187 5.354108 0.693459 11.698166 -0.720908 -4.738617 0.000001 0.000000 -0.000000 -0.000000 0.000000 0.000000 -21.414231 -7.822115 -4.019757 38.127858 8.032860 0.371645 -13.153855 0.190577 -6.324743 0.000000 -0.000000 0.000000 0.000001 -0.000000 -0.000002 14.775118 -2.281724 -2.193398 1.147138 -0.519161 -0.133043 1.146823 -0.523547 -0.127304 -2.615607 -0.384208 0.465021 -2.615606 -0.384209 0.465021 -0.000000 -0.000000 0.000000 -2.615527 -0.384209 0.465022 -2.615597 -0.384208 0.465020 0.000001 0.000000 -0.000000 -0.000000 -0.000000 0.000000 3.386251 -1.425679 -14.714295 11.379852 -12.924250 -55.355046 -0.000014 -64.107985 -0.000033 -3.413138 9.886141 -4.476205 -4.259451 -4.051629 21.939140 18.338460 13.474619 -14.273452 0.000003 -0.000004 -0.000001 -1.595351 -2.371018 -18.269474 0.911356 3.139847 -32.364032 -0.000001 -0.000002 -0.000002 0.302248 4.037801 -19.357335 0.795230 2.948914 -30.178023 0.000001 0.000001 -0.000001 2.151585 7.810346 -27.208117 0.979944 3.245372 -33.595634 -0.000000 -0.000001 -0.000001 -6.306725 9.965996 -28.358358 0.918970 3.151804 -32.502951 0.000001 -0.000005 -0.000002 0.000001 -0.000002 0.000003 0.000001 -0.000002 0.000003 0.000000 -0.000002 0.000004 -0.000000 -0.000001 -0.000000 -0.000000 -0.000002 0.000000 -0.000000 -0.000001 -0.000000 0.000000 0.000000 -0.000000 4.534052 -8.236427 18.617702 17.225930 17.501366 47.628224 0.000001 68.678283 -0.000002 3.853359 21.200371 -4.488995 -3.418067 2.845875 -14.135594 17.593512 -15.229561 5.634163 0.000006 -0.000005 -0.000003 -1.526437 5.296493 13.606007 1.183595 -3.104100 41.736072 -0.000001 0.000001 0.000003 -1.882215 0.533470 26.490523 0.942322 -2.810728 37.062434 -0.000001 0.000002 0.000002 0.503882 -4.373409 33.549715 1.005233 -2.892040 38.326783 -0.000000 0.000001 -0.000000 -9.808397 -16.472671 29.975634 0.694024 -2.447894 31.653477 -0.000002 0.000003 -0.000000 -0.000000 0.000003 -0.000001 -0.000001 0.000000 -0.000001 -0.000000 0.000003 -0.000001 -0.000001 -0.000002 0.000002 -0.000001 -0.000001 0.000001 -0.000001 -0.000002 0.000002 -0.000001 -0.000001 0.000002 0.000002 -0.000000 -0.000000 0.000002 -0.000000 -0.000000 0.000002 -0.000000 -0.000000 0.000002 -0.000000 -0.000000 0.000002 -0.000000 -0.000000 0.000002 -0.000000 -0.000000 0.000002 -0.000000 -0.000000 0.000001 0.000000 -0.000000 -0.000000 -0.000000 -0.000000 
0.260111 94.227669 -123.806503 0.433140 -0.684618 2.102369 0.000000 0.000000 0.000000 -40.944218 2.658129 0.832297 52.587990 2.208202 -0.499826 9.415318 -0.158828 -7.565036 0.000002 -0.000001 -0.000000 -0.000001 -0.000000 0.000000 -24.421358 -7.897098 -4.197318 34.757323 8.003929 1.117035 -5.425882 0.741586 -5.037079 0.000000 -0.000000 -0.000000 -0.000000 0.000000 -0.000001 14.481360 -2.216645 -1.412643 1.103875 -0.549360 -0.002286 1.103869 -0.556265 0.004268 -2.648008 -0.370475 0.519160 -2.648001 -0.370475 0.519160 -0.000001 -0.000000 0.000000 -2.647930 -0.370473 0.519160 -2.648003 -0.370479 0.519161 0.000000 0.000000 -0.000000 -0.000001 -0.000000 0.000000 3.484221 -0.604824 -14.701489 12.586514 -15.287239 -53.501118 0.000032 -72.413228 0.000054 -3.559465 10.120141 -0.557166 -4.259460 -4.051567 21.939150 18.295807 13.387742 -14.220727 0.000002 0.000002 -0.000006 -1.830219 -2.368045 -19.336650 0.909308 3.136618 -32.326736 -0.000002 0.000003 0.000004 0.224192 3.831753 -19.932797 0.798303 2.954178 -30.237592 0.000001 -0.000001 -0.000002 2.031486 7.525496 -27.728930 1.001956 3.278176 -33.982104 0.000004 0.000001 0.000001 -6.403471 9.785787 -28.549959 0.931623 3.171518 -32.732073 0.000001 -0.000002 0.000002 0.000000 -0.000002 0.000000 0.000000 -0.000002 0.000000 -0.000000 -0.000002 0.000001 -0.000001 0.000001 0.000002 -0.000001 0.000001 0.000000 -0.000001 0.000001 0.000002 -0.000001 0.000002 0.000001 4.453411 -8.062593 18.298372 16.677865 13.024822 49.436756 0.000020 64.503111 -0.000012 3.311338 19.698928 -3.818971 -3.437008 3.011799 -14.080141 17.420102 -14.679086 5.446358 0.000002 0.000003 -0.000002 -1.632560 5.381369 12.050629 1.062706 -2.963195 39.452105 0.000001 -0.000003 0.000003 -1.720681 0.632539 24.481741 0.834283 -2.661800 34.799247 -0.000004 -0.000001 -0.000000 0.445798 -4.245512 31.539006 0.899610 -2.753360 36.182596 0.000004 -0.000001 -0.000002 -10.096797 -16.487156 27.843408 0.609984 -2.306166 29.627773 0.000001 0.000003 -0.000001 0.000001 -0.000003 0.000000 -0.000000 -0.000001 -0.000000 0.000001 -0.000003 0.000000 0.000001 -0.000002 -0.000002 0.000001 -0.000001 -0.000000 0.000001 -0.000002 -0.000002 0.000001 -0.000001 -0.000000 -0.000001 -0.000000 0.000000 -0.000001 -0.000000 0.000000 -0.000001 -0.000000 0.000000 -0.000001 -0.000000 0.000000 -0.000001 -0.000000 0.000000 -0.000001 -0.000000 0.000000 -0.000001 -0.000000 0.000000 -0.000002 0.000000 0.000000 0.000000 0.000000 0.000000 
0.260111 94.227669 -123.806503 0.433140 -0.684618 2.102369 0.000000 0.000000 0.000000 -40.944218 2.658129 0.832297 52.587990 2.208202 -0.499826 9.415318 -0.158828 -7.565036 0.000002 -0.000001 -0.000000 -0.000001 -0.000000 0.000000 -24.421358 -7.897098 -4.197318 34.757323 8.003929 1.117035 -5.425882 0.741586 -5.037079 0.000000 -0.000000 -0.000000 -0.000000 0.000000 -0.000001 14.481360 -2.216645 -1.412643 1.103875 -0.549360 -0.002286 1.103869 -0.556265 0.004268 -2.648008 -0.370475 0.519160 -2.648001 -0.370475 0.519160 -0.000001 -0.000000 0.000000 -2.647930 -0.370473 0.519160 -2.648003 -0.370479 0.519161 0.000000 0.000000 -0.000000 -0.000001 -0.000000 0.000000 3.484221 -0.604824 -14.701489 12.586514 -15.287239 -53.501118 0.000032 -72.413228 0.000054 -3.559465 10.120141 -0.557166 -4.259460 -4.051567 21.939150 18.295807 13.387742 -14.220727 0.000002 0.000002 -0.000006 -1.830219 -2.368045 -19.336650 0.909308 3.136618 -32.326736 -0.000002 0.000003 0.000004 0.224192 3.831753 -19.932797 0.798303 2.954178 -30.237592 0.000001 -0.000001 -0.000002 2.031486 7.525496 -27.728930 1.001956 3.278176 -33.982104 0.000004 0.000001 0.000001 -6.403471 9.785787 -28.549959 0.931623 3.171518 -32.732073 0.000001 -0.000002 0.000002 0.000000 -0.000002 0.000000 0.000000 -0.000002 0.000000 -0.000000 -0.000002 0.000001 -0.000001 0.000001 0.000002 -0.000001 0.000001 0.000000 -0.000001 0.000001 0.000002 -0.000001 0.000002 0.000001 4.453411 -8.062593 18.298372 16.677865 13.024822 49.436756 0.000020 64.503111 -0.000012 3.311338 19.698928 -3.818971 -3.437008 3.011799 -14.080141 17.420102 -14.679086 5.446358 0.000002 0.000003 -0.000002 -1.632560 5.381369 12.050629 1.062706 -2.963195 39.452105 0.000001 -0.000003 0.000003 -1.720681 0.632539 24.481741 0.834283 -2.661800 34.799247 -0.000004 -0.000001 -0.000000 0.445798 -4.245512 31.539006 0.899610 -2.753360 36.182596 0.000004 -0.000001 -0.000002 -10.096797 -16.487156 27.843408 0.609984 -2.306166 29.627773 0.000001 0.000003 -0.000001 0.000001 -0.000003 0.000000 -0.000000 -0.000001 -0.000000 0.000001 -0.000003 0.000000 0.000001 -0.000002 -0.000002 0.000001 -0.000001 -0.000000 0.000001 -0.000002 -0.000002 0.000001 -0.000001 -0.000000 -0.000001 -0.000000 0.000000 -0.000001 -0.000000 0.000000 -0.000001 -0.000000 0.000000 -0.000001 -0.000000 0.000000 -0.000001 -0.000000 0.000000 -0.000001 -0.000000 0.000000 -0.000001 -0.000000 0.000000 -0.000002 0.000000 0.000000 0.000000 0.000000 0.000000 
0.260111 94.227669 -123.806503 0.433140 -0.684618 2.102369 0.000000 0.000000 0.000000 -40.944218 2.658129 0.832297 52.587990 2.208202 -0.499826 9.415318 -0.158828 -7.565036 0.000002 -0.000001 -0.000000 -0.000001 -0.000000 0.000000 -24.421358 -7.897098 -4.197318 34.757323 8.003929 1.117035 -5.425882 0.741586 -5.037079 0.000000 -0.000000 -0.000000 -0.000000 0.000000 -0.000001 14.481360 -2.216645 -1.412643 1.103875 -0.549360 -0.002286 1.103869 -0.556265 0.004268 -2.648008 -0.370475 0.519160 -2.648001 -0.370475 0.519160 -0.000001 -0.000000 0.000000 -2.647930 -0.370473 0.519160 -2.648003 -0.370479 0.519161 0.000000 0.000000 -0.000000 -0.000001 -0.000000 0.000000 3.484221 -0.604824 -14.701489 12.586514 -15.287239 -53.501118 0.000032 -72.413228 0.000054 -3.559465 10.120141 -0.557166 -4.259460 -4.051567 21.939150 18.295807 13.387742 -14.220727 0.000002 0.000002 -0.000006 -1.830219 -2.368045 -19.336650 0.909308 3.136618 -32.326736 -0.000002 0.000003 0.000004 0.224192 3.831753 -19.932797 0.798303 2.954178 -30.237592 0.000001 -0.000001 -0.000002 2.031486 7.525496 -27.728930 1.001956 3.278176 -33.982104 0.000004 0.000001 0.000001 -6.403471 9.785787 -28.549959 0.931623 3.171518 -32.732073 0.000001 -0.000002 0.000002 0.000000 -0.000002 0.000000 0.000000 -0.000002 0.000000 -0.000000 -0.000002 0.000001 -0.000001 0.000001 0.000002 -0.000001 0.000001 0.000000 -0.000001 0.000001 0.000002 -0.000001 0.000002 0.000001 4.453411 -8.062593 18.298372 16.677865 13.024822 49.436756 0.000020 64.503111 -0.000012 3.311338 19.698928 -3.818971 -3.437008 3.011799 -14.080141 17.420102 -14.679086 5.446358 0.000002 0.000003 -0.000002 -1.632560 5.381369 12.050629 1.062706 -2.963195 39.452105 0.000001 -0.000003 0.000003 -1.720681 0.632539 24.481741 0.834283 -2.661800 34.799247 -0.000004 -0.000001 -0.000000 0.445798 -4.245512 31.539006 0.899610 -2.753360 36.182596 0.000004 -0.000001 -0.000002 -10.096797 -16.487156 27.843408 0.609984 -2.306166 29.627773 0.000001 0.000003 -0.000001 0.000001 -0.000003 0.000000 -0.000000 -0.000001 -0.000000 0.000001 -0.000003 0.000000 0.000001 -0.000002 -0.000002 0.000001 -0.000001 -0.000000 0.000001 -0.000002 -0.000002 0.000001 -0.000001 -0.000000 -0.000001 -0.000000 0.000000 -0.000001 -0.000000 0.000000 -0.000001 -0.000000 0.000000 -0.000001 -0.000000 0.000000 -0.000001 -0.000000 0.000000 -0.000001 -0.000000 0.000000 -0.000001 -0.000000 0.000000 -0.000002 0.000000 0.000000 0.000000 0.000000 0.000000 
